<svg xmlns="http://www.w3.org/2000/svg" viewBox="0 0 72 72" role="img" aria-label="Compact Calm Home logo"><defs><linearGradient id="g-compact-calm-home" x1="12" y1="8" x2="60" y2="64" gradientUnits="userSpaceOnUse"><stop offset="0" stop-color="#fff" stop-opacity=".95"/><stop offset="1" stop-color="#dfe8d9"/></linearGradient><filter id="s-compact-calm-home" x="-20%" y="-20%" width="140%" height="140%"><feDropShadow dx="0" dy="5" stdDeviation="4" flood-color="#141915" flood-opacity=".18"/></filter></defs><rect x="5" y="5" width="62" height="62" rx="18" fill="url(#g-compact-calm-home)"/><path d="M14 22c7-10 23-14 36-8 9 4 14 13 10 25-4 13-17 21-31 17-13-3-21-14-17-26 .5-2 1-5 2-8Z" fill="#6d8a67" opacity=".2"/><g filter="url(#s-compact-calm-home)"><path d="M19 49h34" stroke="#141915" stroke-width="3.2" stroke-linecap="round" stroke-linejoin="round" fill="none"/><path d="M23 23h26a6 6 0 0 1 6 6v17H17V29a6 6 0 0 1 6-6Z" fill="#334d34"/><path d="M24 45c7-11 17-17 30-18" stroke="#141915" stroke-width="2.2" stroke-linecap="round" stroke-linejoin="round" fill="none"/><circle cx="52" cy="24" r="5" fill="#6d8a67"/><text x="36" y="41" text-anchor="middle" font-size="15" font-family="Arial, sans-serif" font-weight="900" fill="#fff">CCH</text></g></svg>